<?xml version="1.0" standalone="no"?>
<!DOCTYPE svg PUBLIC "-//W3C//DTD SVG 20010904//EN"
 "http://www.w3.org/TR/2001/REC-SVG-20010904/DTD/svg10.dtd">
<svg version="1.0" xmlns="http://www.w3.org/2000/svg"
 width="1161.000000pt" height="1280.000000pt" viewBox="0 0 1161.000000 1280.000000"
 preserveAspectRatio="xMidYMid meet">
<metadata>
Created by potrace 1.15, written by Peter Selinger 2001-2017
</metadata>
<g transform="translate(0.000000,1280.000000) scale(0.100000,-0.100000)"
fill="#625ad8" stroke="none">
<path d="M5745 12148 c-10 -40 -31 -104 -48 -143 -31 -71 -92 -175 -102 -175
-4 0 -3 5 0 10 10 16 -1 11 -16 -7 -10 -11 -10 -14 -1 -9 22 13 12 -10 -15
-35 -21 -18 -24 -19 -13 -4 8 11 -14 -7 -48 -40 -34 -33 -62 -62 -62 -64 0 -3
23 17 51 44 28 28 50 45 48 40 -5 -13 -104 -105 -113 -105 -4 0 -4 6 0 13 4 7
3 9 -2 4 -5 -5 -9 -14 -9 -19 0 -6 -6 -13 -14 -16 -9 -3 -11 0 -6 9 5 8 4 11
-1 6 -5 -5 -9 -14 -9 -19 0 -6 -6 -13 -14 -16 -9 -3 -11 0 -6 8 5 9 4 11 -4 6
-6 -4 -9 -11 -6 -16 12 -20 -200 -108 -231 -96 -8 3 -12 2 -9 -4 10 -16 -65
-25 -200 -25 -103 1 -146 5 -208 23 -104 30 -196 72 -271 126 -78 56 -209 194
-202 213 3 8 2 12 -3 8 -18 -11 -96 139 -128 247 -11 38 -18 48 -31 44 -9 -3
-75 -19 -146 -36 -161 -39 -401 -116 -566 -182 -69 -27 -126 -51 -128 -53 -1
-1 8 -38 20 -81 31 -105 33 -331 4 -439 -107 -404 -481 -668 -893 -629 -73 7
-81 9 -48 13 38 6 36 7 -45 24 -143 31 -137 30 -120 17 13 -10 12 -11 -3 -6
-10 3 -24 6 -30 6 -8 0 -8 3 1 8 8 6 3 9 -16 9 -35 0 -153 68 -219 127 l-50
45 -109 -107 c-120 -118 -246 -256 -344 -375 l-64 -78 56 -52 c247 -228 334
-596 218 -912 -32 -85 -106 -207 -168 -275 -190 -211 -494 -315 -772 -265 -52
9 -101 18 -109 18 -32 4 -164 -532 -196 -794 l-7 -55 67 -13 c183 -33 332
-116 467 -259 237 -251 293 -619 144 -936 -102 -218 -324 -401 -551 -457 -28
-6 -51 -13 -53 -14 -4 -3 53 -229 80 -318 l20 -68 47 8 c84 15 300 9 370 -10
302 -81 520 -290 613 -587 20 -65 23 -95 23 -230 0 -180 -12 -236 -79 -375
-45 -94 -110 -185 -176 -245 l-39 -35 81 -100 c115 -144 250 -293 382 -424
l115 -115 22 28 c34 43 165 144 230 177 65 32 96 40 37 8 -50 -26 -48 -31 4
-14 131 42 252 77 295 85 43 8 40 9 -27 6 -65 -4 -70 -3 -35 6 64 16 278 3
363 -21 259 -75 476 -281 563 -534 41 -118 56 -251 42 -369 -10 -78 -39 -192
-67 -259 -6 -14 15 -26 121 -67 164 -64 345 -122 529 -168 146 -36 174 -38
174 -9 0 48 113 280 137 280 4 0 45 37 89 82 84 84 188 159 263 189 23 9 40
18 38 21 -8 7 -98 -37 -165 -80 -71 -46 -151 -119 -195 -177 -15 -19 -27 -30
-27 -23 0 22 146 161 223 211 83 54 209 104 307 122 137 25 341 6 442 -40 24
-11 32 -17 18 -14 -14 4 -32 8 -40 11 -8 2 3 -5 25 -15 22 -11 55 -33 73 -50
25 -23 32 -26 33 -14 1 10 4 6 8 -8 4 -14 17 -27 31 -31 14 -4 18 -7 9 -8 -10
-1 17 -33 70 -83 47 -46 120 -116 161 -158 41 -41 78 -74 81 -73 10 3 46 -88
64 -166 l17 -70 49 6 49 6 0 -35 c0 -44 -25 -129 -57 -193 -32 -62 -126 -161
-191 -200 l-49 -30 32 -75 c49 -115 180 -362 211 -399 2 -2 15 4 28 13 70 45
127 58 271 60 156 2 196 -6 283 -56 155 -89 262 -274 262 -453 0 -108 -41
-233 -104 -318 l-21 -28 25 -20 c99 -78 425 -279 434 -268 1 2 17 24 33 49 45
65 119 134 134 125 7 -5 10 -4 5 3 -8 13 30 36 44 27 6 -4 9 -1 8 7 -2 8 6 13
19 12 12 0 20 3 17 7 -6 11 33 22 47 13 7 -4 9 -3 5 4 -8 13 14 20 98 30 318
39 595 -210 596 -535 0 -46 3 -53 23 -58 42 -10 253 -25 353 -25 l101 0 6 74
c21 247 192 436 437 482 70 13 96 14 158 4 87 -14 134 -29 127 -40 -3 -4 3 -6
12 -4 10 3 27 -2 38 -11 l20 -15 -20 7 c-11 3 16 -20 60 -53 44 -32 84 -59 90
-59 8 0 64 -78 101 -140 9 -17 14 -18 45 -5 101 40 415 206 468 246 1 2 -8 27
-23 56 -101 210 -63 452 98 612 168 167 427 204 634 90 35 -19 67 -32 72 -29
15 9 176 257 219 337 l42 76 -44 31 c-62 42 -134 125 -168 193 -107 211 -68
453 100 618 100 99 217 148 362 154 l64 2 7 49 c16 111 21 442 9 575 -7 74
-14 143 -17 153 -5 14 -18 17 -82 17 -409 1 -669 405 -493 765 38 76 123 171
190 210 28 17 51 34 51 39 0 23 -126 231 -213 351 -28 39 -52 71 -52 73 -1 1
-29 -11 -62 -27 -61 -31 -131 -51 -168 -50 -17 1 -16 2 5 10 21 7 20 8 -9 4
-18 -3 -54 -6 -80 -7 l-46 -1 45 -7 45 -7 -40 -1 c-167 -6 -362 104 -450 253
-59 99 -78 178 -73 298 4 93 14 136 52 227 5 12 -18 30 -86 72 -51 31 -112 65
-135 77 -39 19 -41 22 -33 53 56 228 70 289 70 301 0 9 -21 22 -52 32 -208 67
-395 231 -492 430 -70 144 -81 195 -81 380 0 158 1 161 36 262 79 225 218 384
424 488 50 24 124 53 165 64 41 10 75 23 75 27 -4 144 -114 623 -206 898 -41
121 -114 312 -123 323 -1 1 -32 -9 -70 -23 -449 -163 -945 74 -1095 522 -102
304 -31 622 191 860 l57 61 -68 74 c-108 117 -504 469 -528 469 -3 0 -35 -28
-73 -62 -61 -58 -186 -138 -235 -153 -11 -3 -3 3 18 15 20 11 37 22 37 24 0 2
-64 -16 -142 -40 -79 -24 -170 -48 -203 -54 l-60 -9 80 4 c62 3 71 1 40 -5
-112 -24 -309 1 -442 58 -213 89 -397 286 -467 502 -47 142 -52 217 -33 464 2
28 -1 31 -58 48 -97 30 -314 86 -395 102 -86 18 -310 56 -326 56 -6 0 -19 -33
-29 -72z m1945 -1108 c-8 -5 -19 -10 -25 -10 -5 0 -3 5 5 10 8 5 20 10 25 10
6 0 3 -5 -5 -10z m-55 -20 c-11 -5 -27 -9 -35 -9 -9 0 -8 4 5 9 11 5 27 9 35
9 9 0 8 -4 -5 -9z m-62 -17 c-7 -2 -19 -2 -25 0 -7 3 -2 5 12 5 14 0 19 -2 13
-5z m-5346 -239 c-3 -3 -12 -4 -19 -1 -8 3 -5 6 6 6 11 1 17 -2 13 -5z m40
-10 c-3 -3 -12 -4 -19 -1 -8 3 -5 6 6 6 11 1 17 -2 13 -5z m2978 -1734 c211
-20 367 -65 560 -159 558 -273 899 -850 871 -1476 -13 -299 -98 -560 -264
-810 -226 -341 -576 -576 -992 -667 -91 -20 -133 -23 -315 -22 -179 0 -225 3
-311 22 -330 72 -603 225 -833 468 -451 477 -555 1185 -260 1779 212 428 613
739 1079 837 171 36 299 43 465 28z m3560 -4770 c349 -170 564 -540 542 -932
-14 -254 -118 -482 -299 -654 -90 -85 -139 -120 -244 -172 -145 -72 -272 -102
-437 -102 -264 0 -490 90 -679 269 -141 133 -231 284 -284 479 -21 77 -30 300
-15 388 15 88 32 145 41 139 4 -2 12 6 18 20 22 49 82 104 132 120 41 14 61
14 125 6 43 -6 82 -14 89 -17 6 -3 -2 7 -19 21 l-30 27 33 -18 c45 -25 149
-118 191 -170 l35 -43 41 30 c113 83 269 222 445 395 l195 193 -31 33 c-63 68
-63 69 -3 52 30 -8 99 -37 154 -64z m-6518 -76 c-3 -3 -12 -4 -19 -1 -8 3 -5
6 6 6 11 1 17 -2 13 -5z m3009 -850 c18 -14 18 -14 -6 -3 -31 14 -36 19 -24
19 6 0 19 -7 30 -16z m862 -1481 c-21 -2 -55 -2 -75 0 -21 2 -4 4 37 4 41 0
58 -2 38 -4z m3158 -1034 c3 -6 -5 -3 -20 6 -14 10 -26 19 -26 22 0 7 39 -17
46 -28z m50 -41 l29 -33 -32 29 c-31 28 -38 36 -30 36 2 0 16 -15 33 -32z"/>
<path d="M4267 11815 c48 -70 177 -176 270 -224 68 -34 62 -24 -13 21 -91 54
-105 65 -198 156 -44 42 -70 64 -59 47z"/>
<path d="M5294 11594 c-18 -14 -18 -15 4 -4 12 6 22 13 22 15 0 8 -5 6 -26
-11z"/>
<path d="M4635 11550 c27 -12 43 -12 25 0 -8 5 -22 9 -30 9 -10 0 -8 -3 5 -9z"/>
<path d="M4858 11503 c6 -2 18 -2 25 0 6 3 1 5 -13 5 -14 0 -19 -2 -12 -5z"/>
<path d="M4963 11503 c9 -2 23 -2 30 0 6 3 -1 5 -18 5 -16 0 -22 -2 -12 -5z"/>
<path d="M2383 10743 c15 -2 37 -2 50 0 12 2 0 4 -28 4 -27 0 -38 -2 -22 -4z"/>
<path d="M4708 3373 c7 -3 16 -2 19 1 4 3 -2 6 -13 5 -11 0 -14 -3 -6 -6z"/>
</g>
</svg>
